<svg xmlns="http://www.w3.org/2000/svg" viewBox="0 0 800 600">
  <rect width="800" height="600" fill="#FAF7F2"/>
  <rect x="60" y="80" width="680" height="440" fill="none" stroke="#0F2A44" stroke-width="8"/>
  <g stroke="#0F2A44" stroke-width="4" fill="none">
    <line x1="320" y1="80" x2="320" y2="300"/>
    <line x1="60" y1="300" x2="740" y2="300"/>
    <line x1="450" y1="80" x2="450" y2="300"/>
    <line x1="580" y1="80" x2="580" y2="300"/>
    <line x1="240" y1="300" x2="240" y2="520"/>
    <line x1="450" y1="300" x2="450" y2="520"/>
    <line x1="600" y1="300" x2="600" y2="520"/>
  </g>
  <g font-family="Inter, sans-serif" font-size="16" fill="#0F2A44">
    <text x="190" y="170" text-anchor="middle" font-weight="600">LIVING</text>
    <text x="190" y="188" text-anchor="middle" font-size="12" fill="#64748B">15' x 18'</text>
    <text x="385" y="170" text-anchor="middle" font-weight="600">DINING</text>
    <text x="385" y="188" text-anchor="middle" font-size="12" fill="#64748B">11' x 12'</text>
    <text x="515" y="170" text-anchor="middle" font-weight="600">KITCHEN</text>
    <text x="515" y="188" text-anchor="middle" font-size="12" fill="#64748B">9' x 11'</text>
    <text x="660" y="170" text-anchor="middle" font-weight="600">UTILITY</text>
    <text x="660" y="188" text-anchor="middle" font-size="12" fill="#64748B">5' x 9'</text>
    <text x="150" y="400" text-anchor="middle" font-weight="600">BATH 1</text>
    <text x="345" y="400" text-anchor="middle" font-weight="600">M. BEDROOM</text>
    <text x="345" y="418" text-anchor="middle" font-size="12" fill="#64748B">13' x 14'</text>
    <text x="525" y="400" text-anchor="middle" font-weight="600">BEDROOM 2</text>
    <text x="525" y="418" text-anchor="middle" font-size="12" fill="#64748B">11' x 12'</text>
    <text x="670" y="400" text-anchor="middle" font-weight="600">BEDROOM 3</text>
    <text x="670" y="418" text-anchor="middle" font-size="12" fill="#64748B">10' x 12'</text>
  </g>
  <g fill="#C9A24A" opacity=".35">
    <rect x="90" y="210" width="180" height="60" rx="6"/>
    <rect x="330" y="200" width="80" height="80" rx="6"/>
    <rect x="470" y="200" width="80" height="50" rx="6"/>
    <rect x="260" y="330" width="170" height="70" rx="6"/>
    <rect x="465" y="330" width="120" height="60" rx="4"/>
    <rect x="610" y="330" width="120" height="60" rx="4"/>
  </g>
  <g transform="translate(720,110)">
    <circle r="18" fill="#0F2A44"/>
    <text y="6" text-anchor="middle" fill="#C9A24A" font-family="Playfair Display,serif" font-weight="600" font-size="18">N</text>
  </g>
  <text x="400" y="50" text-anchor="middle" font-family="Playfair Display, serif" font-size="22" fill="#0F2A44" font-weight="600">3 BHK · Typical Floor Plan</text>
  <text x="400" y="570" text-anchor="middle" font-family="Inter, sans-serif" font-size="12" fill="#64748B">Indicative only. Not to scale.</text>
</svg>
