<svg xmlns="http://www.w3.org/2000/svg" viewBox="0 0 800 600" preserveAspectRatio="xMidYMid slice">
  <defs>
    <linearGradient id="ksky" x1="0" y1="0" x2="0" y2="1">
      <stop offset="0%" stop-color="#E79C5C"/>
      <stop offset="100%" stop-color="#2D4E75"/>
    </linearGradient>
  </defs>
  <rect width="800" height="600" fill="url(#ksky)"/>
  <circle cx="160" cy="140" r="60" fill="#F5D99E" opacity=".8"/>
  <rect x="180" y="240" width="220" height="320" fill="#E8D9A8" opacity=".95"/>
  <rect x="180" y="240" width="220" height="16" fill="#8D6C29"/>
  <rect x="420" y="180" width="260" height="380" fill="#D5BC84" opacity=".92"/>
  <rect x="420" y="180" width="260" height="16" fill="#8D6C29"/>
  <g fill="#0F2A44" opacity=".55">
    <rect x="440" y="220" width="24" height="32"/><rect x="474" y="220" width="24" height="32"/><rect x="508" y="220" width="24" height="32"/><rect x="542" y="220" width="24" height="32"/><rect x="576" y="220" width="24" height="32"/><rect x="610" y="220" width="24" height="32"/><rect x="644" y="220" width="24" height="32"/>
    <rect x="440" y="262" width="24" height="32"/><rect x="474" y="262" width="24" height="32"/><rect x="508" y="262" width="24" height="32"/><rect x="542" y="262" width="24" height="32"/><rect x="576" y="262" width="24" height="32"/><rect x="610" y="262" width="24" height="32"/><rect x="644" y="262" width="24" height="32"/>
    <rect x="440" y="304" width="24" height="32"/><rect x="474" y="304" width="24" height="32"/><rect x="508" y="304" width="24" height="32"/><rect x="542" y="304" width="24" height="32"/><rect x="576" y="304" width="24" height="32"/><rect x="610" y="304" width="24" height="32"/><rect x="644" y="304" width="24" height="32"/>
    <rect x="440" y="346" width="24" height="32"/><rect x="474" y="346" width="24" height="32"/><rect x="508" y="346" width="24" height="32"/><rect x="542" y="346" width="24" height="32"/><rect x="576" y="346" width="24" height="32"/><rect x="610" y="346" width="24" height="32"/><rect x="644" y="346" width="24" height="32"/>
    <rect x="440" y="388" width="24" height="32"/><rect x="474" y="388" width="24" height="32"/><rect x="508" y="388" width="24" height="32"/><rect x="542" y="388" width="24" height="32"/><rect x="576" y="388" width="24" height="32"/><rect x="610" y="388" width="24" height="32"/><rect x="644" y="388" width="24" height="32"/>
  </g>
  <g fill="#0F2A44" opacity=".55">
    <rect x="200" y="280" width="22" height="28"/><rect x="230" y="280" width="22" height="28"/><rect x="260" y="280" width="22" height="28"/><rect x="290" y="280" width="22" height="28"/><rect x="320" y="280" width="22" height="28"/><rect x="350" y="280" width="22" height="28"/>
    <rect x="200" y="320" width="22" height="28"/><rect x="230" y="320" width="22" height="28"/><rect x="260" y="320" width="22" height="28"/><rect x="290" y="320" width="22" height="28"/><rect x="320" y="320" width="22" height="28"/><rect x="350" y="320" width="22" height="28"/>
    <rect x="200" y="360" width="22" height="28"/><rect x="230" y="360" width="22" height="28"/><rect x="260" y="360" width="22" height="28"/><rect x="290" y="360" width="22" height="28"/><rect x="320" y="360" width="22" height="28"/><rect x="350" y="360" width="22" height="28"/>
    <rect x="200" y="400" width="22" height="28"/><rect x="230" y="400" width="22" height="28"/><rect x="260" y="400" width="22" height="28"/><rect x="290" y="400" width="22" height="28"/><rect x="320" y="400" width="22" height="28"/><rect x="350" y="400" width="22" height="28"/>
    <rect x="200" y="440" width="22" height="28"/><rect x="230" y="440" width="22" height="28"/><rect x="260" y="440" width="22" height="28"/><rect x="290" y="440" width="22" height="28"/><rect x="320" y="440" width="22" height="28"/><rect x="350" y="440" width="22" height="28"/>
  </g>
  <rect x="0" y="560" width="800" height="40" fill="#0B1F34"/>
  <rect x="70" y="520" width="60" height="40" fill="#1E5E3A"/>
  <circle cx="100" cy="505" r="22" fill="#3E8A57"/>
</svg>
