<svg xmlns="http://www.w3.org/2000/svg" viewBox="0 0 800 600" preserveAspectRatio="xMidYMid slice">
  <defs>
    <linearGradient id="k2" x1="0" y1="0" x2="0" y2="1">
      <stop offset="0%" stop-color="#4B7DA0"/>
      <stop offset="100%" stop-color="#0F2A44"/>
    </linearGradient>
  </defs>
  <rect width="800" height="600" fill="url(#k2)"/>
  <circle cx="660" cy="130" r="52" fill="#FAF7F2" opacity=".35"/>
  <rect x="150" y="200" width="240" height="360" fill="#D5BC84"/>
  <rect x="150" y="200" width="240" height="16" fill="#8D6C29"/>
  <rect x="400" y="160" width="260" height="400" fill="#E8D9A8"/>
  <rect x="400" y="160" width="260" height="16" fill="#8D6C29"/>
  <g fill="#0F2A44" opacity=".55">
    <g id="k2w">
      <rect x="170" y="240" width="24" height="30"/><rect x="204" y="240" width="24" height="30"/><rect x="238" y="240" width="24" height="30"/><rect x="272" y="240" width="24" height="30"/><rect x="306" y="240" width="24" height="30"/><rect x="340" y="240" width="24" height="30"/>
    </g>
    <use href="#k2w" y="40"/><use href="#k2w" y="80"/><use href="#k2w" y="120"/><use href="#k2w" y="160"/><use href="#k2w" y="200"/><use href="#k2w" y="240"/>
  </g>
  <g fill="#0F2A44" opacity=".55">
    <g id="k2wb">
      <rect x="420" y="200" width="26" height="32"/><rect x="456" y="200" width="26" height="32"/><rect x="492" y="200" width="26" height="32"/><rect x="528" y="200" width="26" height="32"/><rect x="564" y="200" width="26" height="32"/><rect x="600" y="200" width="26" height="32"/><rect x="636" y="200" width="26" height="32"/>
    </g>
    <use href="#k2wb" y="42"/><use href="#k2wb" y="84"/><use href="#k2wb" y="126"/><use href="#k2wb" y="168"/><use href="#k2wb" y="210"/><use href="#k2wb" y="252"/><use href="#k2wb" y="294"/>
  </g>
  <!-- Balcony accents -->
  <g stroke="#C9A24A" stroke-width="3" fill="none" opacity=".6">
    <line x1="400" y1="330" x2="660" y2="330"/>
    <line x1="400" y1="440" x2="660" y2="440"/>
  </g>
  <rect x="0" y="560" width="800" height="40" fill="#0B1F34"/>
  <g>
    <rect x="714" y="480" width="8" height="80" fill="#2D1F10"/>
    <ellipse cx="718" cy="470" rx="40" ry="20" fill="#1E7F5B"/>
  </g>
</svg>
